<svg xmlns="http://www.w3.org/2000/svg" xml:space="preserve" width="668.82275" height="183.71317" viewBox="0 0 668.82275 183.71316"><g style="stroke-width:.762781"><g style="fill:#1c2076;stroke-width:.762781"><path d="m0 0 .051-2.876a1.86 1.86 0 0 1 1.851-1.82h.03a1.854 1.854 0 0 1 1.824 1.883l-.05 2.88A1.858 1.858 0 0 1 .52 1.322 1.85 1.85 0 0 1 0 0" style="fill:#1c2076;fill-opacity:1;fill-rule:nonzero;stroke:none;stroke-width:.762781" transform="matrix(1.74799 0 0 -1.74799 15.879 36.532)"/></g><g style="fill:#1c2076;stroke-width:.762781"><path d="M0 0h.03c.498.009.96.211 1.304.566.343.355.528.824.52 1.318l-.053 2.88a1.85 1.85 0 0 1-.564 1.313c-.35.338-.815.507-1.321.503a1.85 1.85 0 0 1-1.818-1.884l.05-2.876A1.86 1.86 0 0 1 0 0" style="fill:#1c2076;fill-opacity:1;fill-rule:nonzero;stroke:none;stroke-width:.762781" transform="matrix(1.74799 0 0 -1.74799 18.736 18.396)"/></g><g style="fill:#1c2076;stroke-width:.762781"><path d="M0 0a1.84 1.84 0 0 1-.57 1.313c-.355.342-.811.499-1.316.511l-2.876-.05a1.86 1.86 0 0 1-1.82-1.888 1.86 1.86 0 0 1 1.852-1.82h.03l2.88.051A1.854 1.854 0 0 1 0 0" style="fill:#1c2076;fill-opacity:1;fill-rule:nonzero;stroke:none;stroke-width:.762781" transform="matrix(1.74799 0 0 -1.74799 11.506 25.954)"/></g><g style="stroke-width:.762781"><path d="M0 0c.507 0 .981.203 1.334.57l1.998 2.07c.342.354.527.823.519 1.317-.01.494-.211.959-.568 1.301s-.843.549-1.32.519a1.84 1.84 0 0 1-1.3-.566l-1.996-2.069a1.85 1.85 0 0 1-.519-1.322c.008-.494.209-.954.566-1.296A1.83 1.83 0 0 1 0 0" style="fill:#30a8e1;fill-opacity:1;fill-rule:nonzero;stroke:none;stroke-width:.762781" transform="matrix(1.74799 0 0 -1.74799 8.033 40.349)"/></g><g style="stroke-width:.762781"><path d="M0 0c.509 0 .982.203 1.334.566l1.998 2.069a1.86 1.86 0 0 1-.048 2.623 1.91 1.91 0 0 1-1.318.519 1.86 1.86 0 0 1-1.3-.566l-1.998-2.069A1.853 1.853 0 0 1 0 0" style="fill:#30a8e1;fill-opacity:1;fill-rule:nonzero;stroke:none;stroke-width:.762781" transform="matrix(1.74799 0 0 -1.74799 26.328 21.385)"/></g><g style="stroke-width:.762781"><path d="M0 0c.349-.338.805-.52 1.288-.52.507 0 .98.199 1.333.567a1.848 1.848 0 0 1-.049 2.618L.502 4.662c-.736.71-1.91.689-2.62-.046a1.84 1.84 0 0 1-.517-1.322c.009-.494.209-.954.566-1.296Z" style="fill:#30a8e1;fill-opacity:1;fill-rule:nonzero;stroke:none;stroke-width:.762781" transform="matrix(1.74799 0 0 -1.74799 9.007 20.743)"/></g><g style="fill:#1c2076;stroke-width:.762781"><path d="M0 0c-.249-.68-.832-1.866-1.943-2.17-.076-.021-.149-.026-.225-.038-1.027-.161-2.023.489-2.547.916-.498.41-.944.941-1.347 1.533a9.9 9.9 0 0 0-1.371 2.943 11 11 0 0 0-.289 1.483c-.27 2.179.22 4.032 1.075 5.076.355.43.769.726 1.214.848q.257.07.534.068c1.74 0 4.029-2.027 4.958-5.423h.002C.564 3.391.542 1.482 0 0m-66.905-27.627-3.947-1.541-5.375-2.099a3.9 3.9 0 0 0-4.88 2.339 3.895 3.895 0 0 0 2.141 4.971l3.924 1.871 3.897 1.854L-13.298 7.31c-.18-1.761-.04-3.661.49-5.595.724-2.648 2.09-4.996 3.881-6.711zm3.875-20.817 31.583 2.567c.594-.067 1.003-.65 1.2-.996.49-.879.768-2.373-.057-3.717l-.342-.556-.205-.618-7.16-21.722c-.304-.338-.659-.533-.984-.533h-2.108a14.02 14.02 0 0 1-6.159 10.871 13.96 13.96 0 0 1-7.859 2.407c-1.455 0-2.859-.229-4.178-.634a14.057 14.057 0 0 1-9.838-12.644h-2.819a14 14 0 0 1-.247 2.053 14 14 0 0 1-2.115 5.026 14.2 14.2 0 0 1-2.714 2.989 14.02 14.02 0 0 1-8.942 3.21c-3.395 0-6.51-1.208-8.94-3.21a14.3 14.3 0 0 1-3.419-4.147 14 14 0 0 1-1.657-5.921h-2.819a14 14 0 0 1-1.657 5.921 14.3 14.3 0 0 1-3.419 4.147 14.02 14.02 0 0 1-8.942 3.21c-1.941 0-3.791-.398-5.471-1.107a14.2 14.2 0 0 1-6.185-5.092 14 14 0 0 1-2.113-5.026 14 14 0 0 1-.247-2.053h-2.822a14.02 14.02 0 0 1-6.157 10.871 13.96 13.96 0 0 1-7.859 2.407c-2.909 0-5.614-.887-7.859-2.407a14.02 14.02 0 0 1-6.157-10.871h-.716c-.42 0-.884.322-1.231.853l-5.937 11.2-.07.126-.076.127c-.806 1.352-.521 2.838-.031 3.708.211.372.663.988 1.32.988h.228l.223.026L-67.3-48.79zm14.035-31.149a7.78 7.78 0 0 0-6.126-2.99 7.78 7.78 0 0 0-6.123 2.99 7.74 7.74 0 0 0-1.622 5.574c.395 3.928 3.719 7.002 7.745 7.002 4.029 0 7.352-3.074 7.747-7.002q.04-.379.041-.785a7.74 7.74 0 0 0-1.662-4.789m-30.856 0a7.77 7.77 0 0 0-6.123-2.99 7.78 7.78 0 0 0-6.123 2.99 7.74 7.74 0 0 0-1.622 5.574c.395 3.928 3.717 7.002 7.745 7.002s7.352-3.074 7.747-7.002a7.742 7.742 0 0 0-1.624-5.574m-30.853 0a7.77 7.77 0 0 0-6.123-2.99 7.78 7.78 0 0 0-6.124 2.99 7.75 7.75 0 0 0-1.621 5.574c.393 3.928 3.716 7.002 7.745 7.002s7.352-3.074 7.747-7.002a7.732 7.732 0 0 0-1.624-5.574m-30.853 0a7.77 7.77 0 0 0-6.124-2.99 7.78 7.78 0 0 0-6.123 2.99 7.75 7.75 0 0 0-1.621 5.574c.392 3.928 3.716 7.002 7.744 7.002 4.029 0 7.353-3.074 7.748-7.002q.037-.379.037-.785a7.73 7.73 0 0 0-1.661-4.789m-10.391 59.348a49.4 49.4 0 0 0 7.775 10.35c.129.131.245.271.376.402a51 51 0 0 0 2.962 2.711 49.4 49.4 0 0 0 7.79 5.439l5.217-5.215a44.7 44.7 0 0 1-10.9-8.007 44.3 44.3 0 0 1-7.994-10.908zm29.344 11.453q1.077.441 2.179.815a40.2 40.2 0 0 0 13.095 2.183c10.729 0 20.818-4.177 28.404-11.765.049-.051.093-.102.144-.152l-2.348-1.106a9.46 9.46 0 0 1-5.199-12.066 9.46 9.46 0 0 1 11.846-5.678l5.595 2.163a40.4 40.4 0 0 0 1.593-8.801l-79.972-6.512c-.527 5.65.106 11.402 1.966 16.831q.376 1.097.817 2.175c.285.696.596 1.389.923 2.073a40 40 0 0 0 7.827 11.073s6.808 6.106 11.058 7.846c.701.287 1.373.634 2.072.921M5.435 6.706h.002c-1.803 6.592-7.224 10.659-12.339 9.261a7.7 7.7 0 0 1-1.797-.743l-1.382-.502-64.677-30.533c-.386.418-.768.84-1.174 1.246-8.387 8.387-19.537 13.007-31.398 13.007a44.4 44.4 0 0 1-16.389-3.121l-7.448 7.445a2.11 2.11 0 0 1-2.472.38 53.4 53.4 0 0 1-9.117-6.009c-1.719 2.952-4.021 5.507-7.435 6.782-2.703 1.009-5.169.46-7.494-.485-1.581-.647-4.497-2.746-6.347-1.512-1.083.718-2.504.291-2.977-.676-.52-1.064.061-2.378 1.138-3.096 2.185-1.448 5.671-.57 7.825.119 1.85.591 3.761 1.98 5.893 1.723 2.952-.355 4.863-2.944 6.21-5.676-.283-.27-.57-.536-.849-.815a53.5 53.5 0 0 1-9.647-13.155 2.12 2.12 0 0 1 .382-2.47l7.462-7.462c-2.582-6.535-3.524-13.562-2.89-20.472l-16.953-1.384c-4.069 0-6.992-3.573-7.334-7.619a9.4 9.4 0 0 1-.015-1.393 9.1 9.1 0 0 1 1.282-4.122l4.018-7.576 2.008-3.792c1.028-1.715 2.562-2.906 4.289-3.396a6.3 6.3 0 0 1 1.777-.253h1.532a14.3 14.3 0 0 1 2.138-3.868q.68-.874 1.485-1.622a14 14 0 0 1 1.718-1.376 14 14 0 0 1 7.859-2.399c2.912 0 5.617.886 7.859 2.399a14.12 14.12 0 0 1 5.343 6.866h4.453c.395-1.09.905-2.12 1.543-3.066a14.045 14.045 0 0 1 11.656-6.199c3.397 0 6.512 1.208 8.942 3.21a14.2 14.2 0 0 1 3.419 4.146q.245.457.453.938.21.48.387.971h4.453c.239-.659.511-1.301.84-1.909a14.1 14.1 0 0 1 3.419-4.146 14.02 14.02 0 0 1 8.94-3.21c3.397 0 6.512 1.208 8.942 3.21a14.1 14.1 0 0 1 2.714 2.989 14 14 0 0 1 1.545 3.066h4.453c1.491-4.104 4.827-7.331 9.021-8.632a14 14 0 0 1 4.178-.633 14 14 0 0 1 10.353 4.552 14.3 14.3 0 0 1 2.849 4.713h2.924q.899.002 1.757.245c.568.16 1.116.397 1.632.702q.389.227.749.505a8 8 0 0 1 1.878 2.113l7.421 22.516c2.141 3.48 1.582 7.771-.593 10.507-1.085 1.36-2.578 2.34-4.337 2.627a6.6 6.6 0 0 1-1.087.084l-31.493-2.559a44.6 44.6 0 0 1-1.858 9.981L-1.59-8.049l1.387.595c2.45.773 4.426 2.767 5.44 5.541.941 2.584 1.013 5.642.198 8.619" style="fill:#1c2076;fill-opacity:1;fill-rule:nonzero;stroke:none;stroke-width:.762781" transform="matrix(1.74799 0 0 -1.74799 312.283 28.39)"/></g><g style="fill:#1c2076;stroke-width:.762781"><path d="m0 0 6.364-14.692 10.963.752-7.407-8.957 5.23-12.08-11.083 5-12.648-15.295 3.668 19.347-20.131 9.079 22.139 1.521z" style="fill:#1c2076;fill-opacity:1;fill-rule:nonzero;stroke:none;stroke-width:.762781" transform="matrix(1.74799 0 0 -1.74799 125.225 37.817)"/></g><g style="fill:#1c2076;stroke-width:.762781"><path d="M0 0h-28.87v10.33h7.245V5.381H0Zm-29.204 25.372c7.11 0 10.782 3.378 10.782 6.748v.879h7.51v-.879c0-3.37 3.672-6.849 10.748-6.849v-5.38c-7.511 0-11.983 2.178-14.553 5.515-2.572-3.337-7.143-5.515-14.487-5.515zm-.834-7.238H.668v-5.625h-11.647V7.416h-7.042v5.093h-12.017z" style="fill:#1c2076;fill-opacity:1;fill-rule:nonzero;stroke:none;stroke-width:.762781" transform="matrix(1.74799 0 0 -1.74799 358.344 176.406)"/></g><g style="fill:#1c2076;stroke-width:.762781"><path d="M0 0h7.34v-5.202h3.475v-6.192H7.34v-5.726H0Zm-19.958-17.998H7.34v-9.029h-19.958v-1.301H8.007v-4.324h-27.965v9.316H0v1.157h-19.958zm-1.739 7.137c4.51 1.09 6.308 4.037 6.308 8.539v2.145h7.281v-2.458c.097-4.324 1.9-7.136 6.305-8.226v-5.66c-4.438.558-7.808 2.493-9.945 5.583-2.171-3.09-5.507-5.025-9.949-5.583z" style="fill:#1c2076;fill-opacity:1;fill-rule:nonzero;stroke:none;stroke-width:.762781" transform="matrix(1.74799 0 0 -1.74799 402.694 119.33)"/></g><g style="fill:#1c2076;stroke-width:.762781"><path d="M0 0h7.349v-7.981h3.47v-6.36h-3.47v-9.738H0Zm-14.315-12.618h3.868v6.461h-3.868zM8.016-32.652h-27.974v11.875h7.441v-6.115H8.016ZM-21.359-.532h17.825v-17.711h-17.825z" style="fill:#1c2076;fill-opacity:1;fill-rule:nonzero;stroke:none;stroke-width:.762781" transform="matrix(1.74799 0 0 -1.74799 463.372 119.33)"/></g><g style="fill:#1c2076;stroke-width:.762781"><path d="M0 0h-41.867v-7.838h31.056l-.304-4.772L-.16-2.576z" style="fill:#1c2076;fill-opacity:1;fill-rule:nonzero;stroke:none;stroke-width:.762781" transform="matrix(1.74799 0 0 -1.74799 569.301 89.462)"/></g><g style="fill:#1c2076;stroke-width:.762781"><path d="M0 0v8.15h-10.71V0h-14.975v-8.041h17.23L.325 0Z" style="fill:#1c2076;fill-opacity:1;fill-rule:nonzero;stroke:none;stroke-width:.762781" transform="matrix(1.74799 0 0 -1.74799 538.46 123.139)"/></g><g style="fill:#1c2076;stroke-width:.762781"><path d="M0 0c-4.527 0-8.277-3.944-8.277-9.063 0-.802.101-1.571.279-2.305L4.408 0Z" style="fill:#1c2076;fill-opacity:1;fill-rule:nonzero;stroke:none;stroke-width:.762781" transform="matrix(1.74799 0 0 -1.74799 507.9 143.07)"/></g><g style="fill:#1c2076;stroke-width:.762781"><path d="M0 0h-19.832l-8.775-8.049H0Z" style="fill:#1c2076;fill-opacity:1;fill-rule:nonzero;stroke:none;stroke-width:.762781" transform="matrix(1.74799 0 0 -1.74799 575.532 124.97)"/></g><g style="fill:#1c2076;stroke-width:.762781"><path d="m0 0 .917 15.152L-10.038 5.11-10.367 0Z" style="fill:#1c2076;fill-opacity:1;fill-rule:nonzero;stroke:none;stroke-width:.762781" transform="matrix(1.74799 0 0 -1.74799 569.264 122.785)"/></g><g style="fill:#1c2076;stroke-width:.762781"><path d="M0 0h-21.824l-12.412-11.377c.764-3.235 3.079-5.769 5.993-6.579l24.273 7.711h-19.493c-.634 0-1.123.607-1.123 1.377 0 .767.489 1.334 1.123 1.334h20.638c.634 0 1.119-.567 1.119-1.334 0-.271-.076-.507-.187-.719l9.866 3.134C6.938-2.669 3.716 0 0 0" style="fill:#1c2076;fill-opacity:1;fill-rule:nonzero;stroke:none;stroke-width:.762781" transform="matrix(1.74799 0 0 -1.74799 555.6 144.9)"/></g><g style="fill:#1c2076;stroke-width:.762781"><path d="M0 0h-1.145l-24.274-7.712a7.6 7.6 0 0 1 2.006-.278H2.82c4.528 0 8.328 4.096 8.328 9.164a9.8 9.8 0 0 1-.354 2.618L.937.658C.739.271.405 0 0 0" style="fill:#1c2076;fill-opacity:1;fill-rule:nonzero;stroke:none;stroke-width:.762781" transform="matrix(1.74799 0 0 -1.74799 554.346 164.653)"/></g><g style="fill:#1c2076;stroke-width:.762781"><path d="M0 0v7.981l-10.705-3.395V0Z" style="fill:#1c2076;fill-opacity:1;fill-rule:nonzero;stroke:none;stroke-width:.762781" transform="matrix(1.74799 0 0 -1.74799 664.999 143.423)"/></g><g style="fill:#1c2076;stroke-width:.762781"><path d="m0 0 30.271 4.282 1.486-10.549 11.09 1.563-2.678 18.919-28.902-4.08L-.625 4.417Z" style="fill:#1c2076;fill-opacity:1;fill-rule:nonzero;stroke:none;stroke-width:.762781" transform="matrix(1.74799 0 0 -1.74799 593.927 163.738)"/></g><g style="fill:#1c2076;stroke-width:.762781"><path d="m0 0-7.171.684c.65 1.123 1.157 2.356 1.58 3.708l5.963-.575Zm12.146 14.375-10.66 1.021-.4-4.129-5.427.523.32 3.361-27.035 2.602-.781-8.159 17.2-1.656c-.566-5.861-6.444-9.569-18.412-8.42l-.786-8.159c9.4-.904 18.797.203 24.358 6.149l-.392-4.079 9.16-.879-.018-.177 10.981 2.364z" style="fill:#1c2076;fill-opacity:1;fill-rule:nonzero;stroke:none;stroke-width:.762781" transform="matrix(1.74799 0 0 -1.74799 647.459 118.753)"/></g><g style="fill:#1c2076;stroke-width:.762781"><path d="m0 0 12.575 3.986H0Z" style="fill:#1c2076;fill-opacity:1;fill-rule:nonzero;stroke:none;stroke-width:.762781" transform="matrix(1.74799 0 0 -1.74799 590.074 150.644)"/></g><g style="stroke-width:.762781"><path d="M0 0h2.521v-1.85h1.191v-2.086H2.521v-2.078H0Zm-2.04-6.385h4.561v-4.949H.114v3.167H-2.04Zm-5.042 0h4.734v-2.888h-2.534v-.465l2.889.177v-1.393l-5.089-.355v3.202h2.511v.387h-2.511zm6.795 1.039-7.046-.49v5.65H-1.1v-1.883h-3.712v-1.723l4.525.347z" style="fill:#d0000f;fill-opacity:1;fill-rule:nonzero;stroke:none;stroke-width:.762781" transform="matrix(1.74799 0 0 -1.74799 319.42 91.472)"/></g><g style="stroke-width:.762781"><path d="M0 0h2.521v-4.104h1.421v-2.323H2.521v-4.882H0Zm-.285-10.456-6.818-.489V-.371h6.301V-2.44h-3.782v-6.158l4.299.346z" style="fill:#d0000f;fill-opacity:1;fill-rule:nonzero;stroke:none;stroke-width:.762781" transform="matrix(1.74799 0 0 -1.74799 339.041 91.472)"/></g><path d="M316.951 426.679h2.581V415.37h-2.581zm-7.605-.371h6.474v-6.048h-3.953v-2.12l4.815.406v-2.188l-7.336-.625v6.596h3.987v1.85h-3.987z" style="fill:#d0000f;fill-opacity:1;fill-rule:nonzero;stroke:none;stroke-width:.762781" transform="matrix(1.74799 0 0 -1.74799 -194.089 837.301)"/><g style="stroke-width:.762781"><path d="M0 0h-9.907v3.581h2.483V1.857H0Zm-10.025 8.783c2.441 0 3.704 1.174 3.704 2.34v.304h2.58v-.304c0-1.166 1.259-2.373 3.686-2.373V6.883c-2.58 0-4.113.761-4.996 1.918-.882-1.157-2.449-1.918-4.974-1.918Zm-.284-2.508H.232V4.332h-3.999V2.567h-2.416v1.765h-4.126z" style="fill:#d0000f;fill-opacity:1;fill-rule:nonzero;stroke:none;stroke-width:.762781" transform="matrix(1.74799 0 0 -1.74799 390.293 111.239)"/></g><g style="stroke-width:.762781"><path d="M0 0h2.521v-1.807h1.191v-2.137H2.521v-1.985H0Zm-6.85-6.232h9.371v-3.125h-6.854v-.457h7.082v-1.495H-6.85v3.227H0v.396h-6.85zm-.599 2.465c1.546.38 2.166 1.403 2.166 2.956v.744h2.496v-.845c.038-1.503.654-2.475 2.171-2.855v-1.96c-1.53.195-2.686.871-3.417 1.935-.747-1.064-1.892-1.74-3.416-1.935z" style="fill:#d0000f;fill-opacity:1;fill-rule:nonzero;stroke:none;stroke-width:.762781" transform="matrix(1.74799 0 0 -1.74799 405.514 91.472)"/></g><g style="stroke-width:.762781"><path d="M0 0h2.521v-2.77h1.191v-2.196H2.521v-3.379H0Zm-4.916-4.375h1.33v2.238h-1.33zm7.669-6.934H-6.85v4.114h2.55v-2.12h7.053ZM-7.331-.186h6.114v-6.132h-6.114z" style="fill:#d0000f;fill-opacity:1;fill-rule:nonzero;stroke:none;stroke-width:.762781" transform="matrix(1.74799 0 0 -1.74799 425.534 91.472)"/></g><path d="M369.643 426.679h2.58V415.37h-2.58zm-7.607-1.225h2.142v1.343h2.563v-1.343h2.146v-2.052h-2.18v-.802c0-2.458.887-3.607 2.297-4.223v-2.644c-1.516.448-2.762 1.478-3.547 2.838-.777-1.351-2.027-2.39-3.539-2.838v2.644c1.402.607 2.306 1.773 2.306 4.223v.802h-2.188zM381.1 426.679h2.575v-8.302H381.1Zm2.744-11.309h-9.873v3.725h2.554v-1.732h7.319zm-10.24 8.665h4.32c.033.203.058.414.058.643h-4.493v1.815h6.702v-1.157c0-4.308-3.471-5.76-6.761-5.76v1.833c1.546 0 2.67.329 3.437.912h-3.263z" style="fill:#d0000f;fill-opacity:1;fill-rule:nonzero;stroke:none;stroke-width:.762781" transform="matrix(1.74799 0 0 -1.74799 -194.089 837.301)"/></g></svg>