<svg xmlns="http://www.w3.org/2000/svg" xml:space="preserve" width="1000px" height="219px" x="0px" y="0px" viewBox="0 0 1000 219"><g fill="#FF1A00"><path d="M291.729 146.189c0-12.689 14.895-22.979 33.276-22.979 18.377 0 33.281 10.289 33.281 22.979 0 12.695-14.904 22.988-33.281 22.988-18.38.001-33.276-10.292-33.276-22.988zm86.299-9.63c-2.126-4.965-5.704-9.506-10.402-13.4l7.917.342a7.544 7.544 0 0 0 7.546-7.545 7.545 7.545 0 0 0-7.546-7.551l-39.457-.053V96.326h40.104a7.545 7.545 0 0 0 7.55-7.546 7.552 7.552 0 0 0-7.55-7.551l-81.508-.052V69.161h81.832c4.165 0 7.55-3.382 7.55-7.551s-3.386-7.546-7.55-7.546H271.393c-4.165 0-7.546 3.377-7.546 7.546s3.381 7.551 7.546 7.551c0 0 .809.538.809 4.58l.053 14.72a7.544 7.544 0 0 0 7.55 7.541l33.963.058v12.345h-45.931a7.549 7.549 0 1 0 0 15.096l14.247-.092c-7.699 6.492-12.313 14.756-12.313 23.758 0 20.844 24.729 37.738 55.235 37.738 11.439 0 22.069-2.375 30.879-6.449l22.143-41.897zM478.303 115.451c14.23 30.469 34.012 51.102 34.012 51.102a7.55 7.55 0 0 0 10.577 1.443 7.55 7.55 0 0 0 1.443-10.576s-32.017-39.895-33.639-87.883l.21-7.852c0-4.165-3.373-7.551-7.546-7.551l-20.805-.07c-4.173 0-7.55 3.377-7.55 7.546s3.377 7.551 7.55 7.551h4.851c-2.913 47.927-35.979 86.95-35.979 86.95a7.56 7.56 0 0 0 1.155 10.613c3.254 2.605 8.005 2.09 10.617-1.164 0 0 20.324-20.096 35.367-50.18l-.263.071zm80.962-56.426s-.323-7.117-7.546-7.55h-17.467a7.548 7.548 0 1 0 0 15.096s3.666-.267 3.823 2.643c.161 2.908 0 28.136 0 28.136l-19.681.057c-4.164 0-7.537 3.382-7.537 7.546 0 4.169 3.373 7.546 7.537 7.546h18.714v54.23l22.313-38.162-.156-69.542zM731.822 59.025s-.324-7.117-7.546-7.55H706.81a7.548 7.548 0 1 0 0 15.096s3.661-.267 3.832 2.643c.157 2.908 0 46.657 0 46.657s-.328 7.646 10.507 8.736c4.852.48 9.707-1.457 10.919-7.52l-.246-58.062zM708.375 147v36.875l22.962-41.08c.328-10.996-11.002-11.105-11.002-11.105h-97.781c-4.173 0-7.262 3.395-7.555 7.551-.429 6.145 7.555 7.549 7.555 7.549l85.821.21zM669.902 69.537l-1.308-7.852a7.555 7.555 0 0 0-7.551-7.551l-19.282-.07c-4.164 0-7.55 3.377-7.55 7.546s3.386 7.551 7.55 7.551h4.855c-5.844 26.736-34.842 39.243-34.842 39.243-3.438 2.354-4.317 7.057-1.96 10.49a7.552 7.552 0 0 0 10.494 1.963s28.229-12.668 37.283-27.55c0 0 12.936 18.763 39.838 28.11 3.937 1.365 8.268.311 10.109-3.43 1.854-3.736.319-8.259-3.426-10.109.002.001-28.405-13.275-34.21-38.341zM99.159 6.467s-15.043-1.946-16.01 7.274c0 0 0 5.337 7.275 8.246 0 0 9.707 4.855 10.678 13.105 0 0 2.428 10.184-2.909 18.434 0 0-6.308-.48-9.221-.975 0 0-6.793-2.909-10.192 6.798l-53.368 90.725s-1.938 9.707 7.769 15.529l57.244-96.066s8.25-.49 7.222 6.794l-57.191 96.548s.967 9.221 9.217 15.043l78.114-131.968s-8.735-3.884-10.188-4.369v-9.218s1.452-4.851 7.76-2.913c0 0 42.209 18.438 72.292-20.376 0 0-17.467-26.198-72.292 3.88 0 0 1.942-11.154-9.217-15.524-.001 0-13.588-3.395-16.983-.967z"/><path d="M161.744 48.676s-16.977-3.885-28.136 15.039L61.802 186.947s-4.366 11.158 9.703 14.072l90.239-152.343zM187.461 52.552s-11.645-7.275-18.919 2.917l-78.118 134.39s-5.823 10.189 8.25 15.045l88.787-152.352zM206.866 70.994s-5.337-12.131-15.039-4.855l-70.35 120.322s-8.25 9.707 6.308 16.982l79.081-132.449zM216.573 102.043s-1.457-19.404-11.645-9.221l-58.705 99.461s-5.341 11.645 12.126 11.645l58.224-101.885zM73.442 49.161s-11.641-7.279-20.857 3.885L16.68 112.232s-7.279 13.102 1.942 28.625l54.82-91.696zM43.849 46.729S13.766 56.921 13.285 98.645l30.564-51.916zM638.433.994h-4.497L505.381 218.045l5.704.398L638.556 1.388M999.882.775h-4.497L866.83 217.826l5.704.393L1000 1.174M820.138.334h-4.493l-128.56 217.051 5.709.396L820.264.728M462.419 1.209h-4.496L329.367 218.264l5.7.402L462.542 1.611"/><path d="M280.479.775h-4.493L147.431 217.826l5.7.393L280.605 1.174M251.914.775h-4.493L118.866 217.826l5.704.393L252.036 1.174M222.028.775h-4.488L88.98 217.826l5.704.393L222.155 1.174M193.905.775h-4.497L60.857 217.826l5.7.393L194.032 1.174M163.581.775h-4.497L30.538 217.826l5.695.393L163.708 1.174M135.454.334h-4.493L2.406 217.385l5.704.396L135.581.728M75.69.334h-4.492L.652 119.533 0 128.4 75.817.728M48.442.334H43.95L0 74.777v7.477L48.565.728M18.998.775h-4.497L.451 22.967 0 32.149 19.129 1.174M106.01.334h-4.489L.945 169.336l.814 7.838L106.137.728M909.017 88.675l-11.269.026V75.146h11.269c4.169 0 7.55-3.382 7.55-7.551s-3.381-7.546-7.55-7.546H806.433c-4.169 0-7.546 3.377-7.546 7.546s3.377 7.551 7.546 7.551l12.017-.031v13.561h-12.017a7.545 7.545 0 0 0-7.546 7.546 7.548 7.548 0 0 0 7.546 7.551h102.584a7.549 7.549 0 1 0 0-15.098zm-32.13.513H840.01V75.114h36.877v14.074zM911.392 112.928H804.219c-4.169 0-7.541 3.381-7.541 7.555a7.542 7.542 0 0 0 7.541 7.545h42.594v8.137h-34.615s-10.673-1.938-11.32 7.764c-.644 9.703 0 24.42 0 24.42s0 18.113 26.198 17.143h59.842l23.206-41.969c.967-7.76-5.577-7.498-5.577-7.498h-35.664l-.079-7.996h42.589c4.165 0 7.537-3.381 7.537-7.545-.001-4.175-3.373-7.556-7.538-7.556zm-19.952 37.633v14.553c0 4.367-5.577 4.855-5.577 4.855h-56.518c-7.284-.73-5.822-5.58-5.822-5.58v-13.828h67.917z"/></g></svg>