<svg xmlns="http://www.w3.org/2000/svg" xmlns:xlink="http://www.w3.org/1999/xlink" width="583.64813pt" height="75pt" viewBox="0 0 583.64812 75"><symbol id="a" transform="translate(-475.053 -533.24)"><path d="M-2147483500-2147483500Z"/></symbol><use xlink:href="#a" width="100%" height="100%" fill="#898989" transform="matrix(7 0 0 -7 15032387000 -15032389000)"/><use xlink:href="#a" width="100%" height="100%" fill="#898989" transform="matrix(7 0 0 -7 15032387000 -15032389000)"/><symbol id="b" transform="translate(-475.053 -533.24)"><path d="M-2147483500-2147483500Z"/></symbol><use xlink:href="#b" width="100%" height="100%" fill="#8d7553" transform="matrix(15 0 0 -15 32212259000 -32212261000)"/><symbol id="c" transform="translate(-475.053 -533.24)"><path d="M-2147483500-2147483500Z"/></symbol><use xlink:href="#c" width="100%" height="100%" transform="matrix(11 0 0 -11 23622323000 -23622325000)"/><use xlink:href="#c" width="100%" height="100%" transform="matrix(11 0 0 -11 23622323000 -23622325000)"/><use xlink:href="#c" width="100%" height="100%" transform="matrix(11 0 0 -11 23622323000 -23622325000)"/><use xlink:href="#c" width="100%" height="100%" transform="matrix(11 0 0 -11 23622323000 -23622325000)"/><use xlink:href="#c" width="100%" height="100%" transform="matrix(11 0 0 -11 23622323000 -23622325000)"/><use xlink:href="#c" width="100%" height="100%" transform="matrix(11 0 0 -11 23622323000 -23622325000)"/><use xlink:href="#c" width="100%" height="100%" transform="matrix(11 0 0 -11 23622323000 -23622325000)"/><use xlink:href="#c" width="100%" height="100%" transform="matrix(11 0 0 -11 23622323000 -23622325000)"/><use xlink:href="#c" width="100%" height="100%" transform="matrix(11 0 0 -11 23622323000 -23622325000)"/><use xlink:href="#c" width="100%" height="100%" transform="matrix(11 0 0 -11 23622323000 -23622325000)"/><use xlink:href="#c" width="100%" height="100%" transform="matrix(11 0 0 -11 23622323000 -23622325000)"/><use xlink:href="#c" width="100%" height="100%" transform="matrix(11 0 0 -11 23622323000 -23622325000)"/><use xlink:href="#c" width="100%" height="100%" transform="matrix(11 0 0 -11 23622323000 -23622325000)"/><use xlink:href="#c" width="100%" height="100%" transform="matrix(11 0 0 -11 23622323000 -23622325000)"/><use xlink:href="#c" width="100%" height="100%" transform="matrix(11 0 0 -11 23622323000 -23622325000)"/><use xlink:href="#c" width="100%" height="100%" transform="matrix(11 0 0 -11 23622323000 -23622325000)"/><use xlink:href="#c" width="100%" height="100%" transform="matrix(11 0 0 -11 23622323000 -23622325000)"/><use xlink:href="#c" width="100%" height="100%" transform="matrix(11 0 0 -11 23622323000 -23622325000)"/><use xlink:href="#c" width="100%" height="100%" transform="matrix(11 0 0 -11 23622323000 -23622325000)"/><use xlink:href="#c" width="100%" height="100%" transform="matrix(11 0 0 -11 23622323000 -23622325000)"/><use xlink:href="#c" width="100%" height="100%" transform="matrix(11 0 0 -11 23622323000 -23622325000)"/><use xlink:href="#c" width="100%" height="100%" transform="matrix(11 0 0 -11 23622324000 -23622325000)"/><use xlink:href="#c" width="100%" height="100%" transform="matrix(11 0 0 -11 23622324000 -23622325000)"/><use xlink:href="#c" width="100%" height="100%" transform="matrix(11 0 0 -11 23622324000 -23622325000)"/><use xlink:href="#c" width="100%" height="100%" transform="matrix(11 0 0 -11 23622324000 -23622325000)"/><use xlink:href="#c" width="100%" height="100%" transform="matrix(11 0 0 -11 23622324000 -23622325000)"/><use xlink:href="#c" width="100%" height="100%" transform="matrix(11 0 0 -11 23622324000 -23622325000)"/><use xlink:href="#c" width="100%" height="100%" transform="matrix(11 0 0 -11 23622323000 -23622325000)"/><use xlink:href="#c" width="100%" height="100%" transform="matrix(11 0 0 -11 23622323000 -23622325000)"/><use xlink:href="#c" width="100%" height="100%" transform="matrix(11 0 0 -11 23622323000 -23622325000)"/><use xlink:href="#c" width="100%" height="100%" transform="matrix(11 0 0 -11 23622323000 -23622325000)"/><use xlink:href="#c" width="100%" height="100%" transform="matrix(11 0 0 -11 23622323000 -23622325000)"/><use xlink:href="#c" width="100%" height="100%" transform="matrix(11 0 0 -11 23622323000 -23622325000)"/><use xlink:href="#c" width="100%" height="100%" transform="matrix(11 0 0 -11 23622323000 -23622325000)"/><use xlink:href="#c" width="100%" height="100%" transform="matrix(11 0 0 -11 23622323000 -23622325000)"/><use xlink:href="#c" width="100%" height="100%" transform="matrix(11 0 0 -11 23622323000 -23622325000)"/><use xlink:href="#c" width="100%" height="100%" transform="matrix(11 0 0 -11 23622323000 -23622325000)"/><use xlink:href="#c" width="100%" height="100%" transform="matrix(11 0 0 -11 23622323000 -23622325000)"/><use xlink:href="#c" width="100%" height="100%" transform="matrix(11 0 0 -11 23622323000 -23622325000)"/><symbol id="d" transform="translate(-475.053 -533.24)"><path d="M-2147483500-2147483500Z"/></symbol><use xlink:href="#d" width="100%" height="100%" transform="matrix(11 0 0 -11 23622323000 -23622325000)"/><use xlink:href="#d" width="100%" height="100%" transform="matrix(11 0 0 -11 23622323000 -23622325000)"/><use xlink:href="#c" width="100%" height="100%" transform="matrix(11 0 0 -11 23622323000 -23622325000)"/><use xlink:href="#c" width="100%" height="100%" transform="matrix(11 0 0 -11 23622323000 -23622325000)"/><use xlink:href="#c" width="100%" height="100%" transform="matrix(11 0 0 -11 23622323000 -23622325000)"/><use xlink:href="#c" width="100%" height="100%" transform="matrix(11 0 0 -11 23622323000 -23622325000)"/><use xlink:href="#c" width="100%" height="100%" transform="matrix(11 0 0 -11 23622323000 -23622325000)"/><use xlink:href="#c" width="100%" height="100%" transform="matrix(11 0 0 -11 23622323000 -23622325000)"/><use xlink:href="#c" width="100%" height="100%" transform="matrix(11 0 0 -11 23622323000 -23622325000)"/><use xlink:href="#c" width="100%" height="100%" transform="matrix(11 0 0 -11 23622323000 -23622325000)"/><use xlink:href="#c" width="100%" height="100%" transform="matrix(11 0 0 -11 23622323000 -23622325000)"/><use xlink:href="#c" width="100%" height="100%" transform="matrix(11 0 0 -11 23622323000 -23622325000)"/><use xlink:href="#c" width="100%" height="100%" transform="matrix(11 0 0 -11 23622323000 -23622325000)"/><use xlink:href="#c" width="100%" height="100%" transform="matrix(11 0 0 -11 23622323000 -23622325000)"/><use xlink:href="#c" width="100%" height="100%" transform="matrix(11 0 0 -11 23622323000 -23622325000)"/><use xlink:href="#c" width="100%" height="100%" transform="matrix(11 0 0 -11 23622323000 -23622325000)"/><use xlink:href="#d" width="100%" height="100%" transform="matrix(11 0 0 -11 23622323000 -23622325000)"/><use xlink:href="#d" width="100%" height="100%" transform="matrix(11 0 0 -11 23622323000 -23622325000)"/><use xlink:href="#c" width="100%" height="100%" transform="matrix(11 0 0 -11 23622323000 -23622325000)"/><use xlink:href="#c" width="100%" height="100%" transform="matrix(11 0 0 -11 23622323000 -23622325000)"/><use xlink:href="#c" width="100%" height="100%" transform="matrix(11 0 0 -11 23622323000 -23622325000)"/><use xlink:href="#c" width="100%" height="100%" transform="matrix(11 0 0 -11 23622323000 -23622325000)"/><use xlink:href="#c" width="100%" height="100%" transform="matrix(11 0 0 -11 23622323000 -23622325000)"/><use xlink:href="#c" width="100%" height="100%" transform="matrix(11 0 0 -11 23622323000 -23622325000)"/><use xlink:href="#c" width="100%" height="100%" transform="matrix(11 0 0 -11 23622323000 -23622325000)"/><use xlink:href="#c" width="100%" height="100%" transform="matrix(11 0 0 -11 23622323000 -23622325000)"/><use xlink:href="#c" width="100%" height="100%" transform="matrix(11 0 0 -11 23622323000 -23622325000)"/><use xlink:href="#c" width="100%" height="100%" transform="matrix(11 0 0 -11 23622323000 -23622325000)"/><use xlink:href="#c" width="100%" height="100%" transform="matrix(11 0 0 -11 23622323000 -23622325000)"/><use xlink:href="#c" width="100%" height="100%" transform="matrix(11 0 0 -11 23622323000 -23622325000)"/><use xlink:href="#c" width="100%" height="100%" transform="matrix(11 0 0 -11 23622323000 -23622325000)"/><use xlink:href="#c" width="100%" height="100%" transform="matrix(11 0 0 -11 23622323000 -23622325000)"/><use xlink:href="#c" width="100%" height="100%" transform="matrix(11 0 0 -11 23622323000 -23622325000)"/><use xlink:href="#c" width="100%" height="100%" transform="matrix(11 0 0 -11 23622323000 -23622325000)"/><use xlink:href="#c" width="100%" height="100%" transform="matrix(11 0 0 -11 23622323000 -23622325000)"/><use xlink:href="#c" width="100%" height="100%" transform="matrix(11 0 0 -11 23622323000 -23622325000)"/><use xlink:href="#c" width="100%" height="100%" transform="matrix(11 0 0 -11 23622323000 -23622325000)"/><use xlink:href="#d" width="100%" height="100%" transform="matrix(11 0 0 -11 23622323000 -23622325000)"/><use xlink:href="#d" width="100%" height="100%" transform="matrix(11 0 0 -11 23622323000 -23622325000)"/><use xlink:href="#c" width="100%" height="100%" transform="matrix(11 0 0 -11 23622323000 -23622325000)"/><use xlink:href="#c" width="100%" height="100%" transform="matrix(11 0 0 -11 23622323000 -23622325000)"/><use xlink:href="#c" width="100%" height="100%" transform="matrix(11 0 0 -11 23622323000 -23622325000)"/><use xlink:href="#c" width="100%" height="100%" transform="matrix(11 0 0 -11 23622323000 -23622325000)"/><use xlink:href="#c" width="100%" height="100%" transform="matrix(11 0 0 -11 23622323000 -23622325000)"/><use xlink:href="#c" width="100%" height="100%" transform="matrix(11 0 0 -11 23622323000 -23622325000)"/><use xlink:href="#c" width="100%" height="100%" transform="matrix(11 0 0 -11 23622323000 -23622325000)"/><use xlink:href="#c" width="100%" height="100%" transform="matrix(11 0 0 -11 23622323000 -23622325000)"/><use xlink:href="#c" width="100%" height="100%" transform="matrix(11 0 0 -11 23622323000 -23622325000)"/><use xlink:href="#c" width="100%" height="100%" transform="matrix(11 0 0 -11 23622323000 -23622325000)"/><use xlink:href="#c" width="100%" height="100%" transform="matrix(11 0 0 -11 23622323000 -23622325000)"/><use xlink:href="#c" width="100%" height="100%" transform="matrix(11 0 0 -11 23622323000 -23622325000)"/><use xlink:href="#c" width="100%" height="100%" transform="matrix(11 0 0 -11 23622323000 -23622325000)"/><use xlink:href="#c" width="100%" height="100%" transform="matrix(11 0 0 -11 23622323000 -23622325000)"/><use xlink:href="#c" width="100%" height="100%" transform="matrix(11 0 0 -11 23622323000 -23622325000)"/><use xlink:href="#c" width="100%" height="100%" transform="matrix(11 0 0 -11 23622323000 -23622325000)"/><use xlink:href="#c" width="100%" height="100%" transform="matrix(11 0 0 -11 23622323000 -23622325000)"/><use xlink:href="#d" width="100%" height="100%" transform="matrix(11 0 0 -11 23622323000 -23622325000)"/><use xlink:href="#d" width="100%" height="100%" transform="matrix(11 0 0 -11 23622323000 -23622325000)"/><use xlink:href="#d" width="100%" height="100%" transform="matrix(11 0 0 -11 23622323000 -23622325000)"/><use xlink:href="#d" width="100%" height="100%" transform="matrix(11 0 0 -11 23622323000 -23622325000)"/><use xlink:href="#d" width="100%" height="100%" transform="matrix(11 0 0 -11 23622323000 -23622325000)"/><use xlink:href="#c" width="100%" height="100%" transform="matrix(11 0 0 -11 23622323000 -23622325000)"/><use xlink:href="#c" width="100%" height="100%" transform="matrix(11 0 0 -11 23622323000 -23622325000)"/><use xlink:href="#c" width="100%" height="100%" transform="matrix(11 0 0 -11 23622323000 -23622325000)"/><use xlink:href="#c" width="100%" height="100%" transform="matrix(11 0 0 -11 23622323000 -23622325000)"/><use xlink:href="#c" width="100%" height="100%" transform="matrix(11 0 0 -11 23622323000 -23622325000)"/><use xlink:href="#c" width="100%" height="100%" transform="matrix(11 0 0 -11 23622323000 -23622325000)"/><use xlink:href="#c" width="100%" height="100%" transform="matrix(11 0 0 -11 23622323000 -23622325000)"/><use xlink:href="#c" width="100%" height="100%" transform="matrix(11 0 0 -11 23622323000 -23622325000)"/><use xlink:href="#c" width="100%" height="100%" transform="matrix(11 0 0 -11 23622323000 -23622325000)"/><use xlink:href="#c" width="100%" height="100%" transform="matrix(11 0 0 -11 23622323000 -23622325000)"/><use xlink:href="#c" width="100%" height="100%" transform="matrix(11 0 0 -11 23622323000 -23622325000)"/><use xlink:href="#c" width="100%" height="100%" transform="matrix(11 0 0 -11 23622323000 -23622325000)"/><use xlink:href="#c" width="100%" height="100%" transform="matrix(11 0 0 -11 23622323000 -23622325000)"/><use xlink:href="#d" width="100%" height="100%" transform="matrix(11 0 0 -11 23622323000 -23622325000)"/><use xlink:href="#d" width="100%" height="100%" transform="matrix(11 0 0 -11 23622323000 -23622325000)"/><use xlink:href="#d" width="100%" height="100%" transform="matrix(11 0 0 -11 23622323000 -23622325000)"/><use xlink:href="#c" width="100%" height="100%" transform="matrix(11 0 0 -11 23622323000 -23622325000)"/><use xlink:href="#c" width="100%" height="100%" transform="matrix(11 0 0 -11 23622323000 -23622325000)"/><use xlink:href="#c" width="100%" height="100%" transform="matrix(11 0 0 -11 23622323000 -23622325000)"/><use xlink:href="#c" width="100%" height="100%" transform="matrix(11 0 0 -11 23622323000 -23622325000)"/><use xlink:href="#c" width="100%" height="100%" transform="matrix(11 0 0 -11 23622323000 -23622325000)"/><use xlink:href="#c" width="100%" height="100%" transform="matrix(11 0 0 -11 23622323000 -23622325000)"/><use xlink:href="#c" width="100%" height="100%" transform="matrix(11 0 0 -11 23622323000 -23622325000)"/><use xlink:href="#c" width="100%" height="100%" transform="matrix(11 0 0 -11 23622323000 -23622325000)"/><use xlink:href="#c" width="100%" height="100%" transform="matrix(11 0 0 -11 23622323000 -23622325000)"/><use xlink:href="#c" width="100%" height="100%" transform="matrix(11 0 0 -11 23622323000 -23622325000)"/><use xlink:href="#c" width="100%" height="100%" transform="matrix(11 0 0 -11 23622323000 -23622325000)"/><use xlink:href="#c" width="100%" height="100%" transform="matrix(11 0 0 -11 23622323000 -23622325000)"/><path fill="#0081cc" d="M61.045 20.081V6.56C55.455 2.95 48.309.001 37.95.001 16.67 0 0 16.47 0 37.496 0 58.42 16.578 74.998 37.751 74.998c3.015 0 5.747-.264 8.339-.77l10.872-15.617c-5.68 3.9-11.501 5.498-19.012 5.498-14.806 0-26.407-11.692-26.407-26.613 0-15.055 11.312-26.598 26.316-26.598 10.342 0 17.563 3.975 23.186 9.183M176.408 30.357c-14.682-3.544-16.04-6.434-16.04-10.558 0-5.382 5.838-8.926 14.682-8.926 8.86 0 16.404 3.039 22.184 7.85V6.376C190.328 1.954 182.345 0 173.336 0c-14.028 0-24.527 8.587-24.527 19.932 0 14.565 12.106 18.209 23.094 21.306 13.854 3.9 16.851 8.363 16.851 12.818 0 6.128-5.556 10.053-13.373 10.053-9.895 0-17.803-3.478-25.678-10.252v14.326c7.063 4.976 16.04 6.815 25.877 6.815 14.325 0 24.734-8.662 24.734-21.248 0-14.997-12.479-20.636-23.906-23.393M271.041 1.822l-19.857 55.62-19.84-55.62h-16.727v71.354h11.361V18.78l19.625 54.395h11.138l19.45-54.346v54.346h11.56V1.822ZM337.04 10.891c-13.813 0-25.008 11.916-25.008 26.606 0 14.69 11.195 26.606 25.008 26.606 13.803 0 24.999-11.916 24.999-26.606 0-14.69-11.196-26.606-25-26.606m36.551 26.606c0 20.71-16.37 37.503-36.55 37.503-20.189 0-36.56-16.793-36.56-37.503S316.852.002 337.04.002c20.18 0 36.55 16.785 36.55 37.495M103.14 0c-1.359 0-2.7.091-4.025.232L88.847 14.905c4.157-2.882 9.084-4.008 14.292-4.008 13.804 0 25 11.908 25 26.598 0 14.698-11.196 26.614-25 26.614-13.803 0-24.999-11.916-24.999-26.614 0-2.915.066-5.052.522-8.04l-11.22 16.03c3.568 16.876 18.184 29.513 35.697 29.513 20.188 0 36.56-16.785 36.56-37.503C139.698 16.793 123.326 0 103.138 0M444.379 20.081V6.56c-5.59-3.61-12.736-6.558-23.095-6.558-21.281 0-37.95 16.47-37.95 37.494 0 20.926 16.578 37.503 37.751 37.503 3.006 0 5.747-.265 8.339-.77l10.872-15.617c-5.68 3.9-11.501 5.498-19.012 5.498-14.806 0-26.407-11.692-26.407-26.614 0-15.054 11.312-26.597 26.316-26.597 10.343 0 17.563 3.975 23.186 9.183M559.742 30.357c-14.682-3.544-16.04-6.434-16.04-10.558 0-5.382 5.838-8.927 14.682-8.927 8.86 0 16.404 3.04 22.184 7.85V6.377C573.662 1.954 565.679 0 556.67 0c-14.028 0-24.527 8.587-24.527 19.931 0 14.566 12.106 18.21 23.094 21.307 13.854 3.9 16.851 8.363 16.851 12.818 0 6.128-5.556 10.053-13.373 10.053-9.895 0-17.803-3.478-25.678-10.252v14.326c7.063 4.976 16.04 6.815 25.877 6.815 14.325 0 24.734-8.662 24.734-21.248 0-14.997-12.479-20.636-23.906-23.393M486.473 0c-1.358 0-2.7.091-4.024.232l-10.268 14.673c4.157-2.882 9.084-4.008 14.292-4.008 13.812 0 25 11.908 25 26.598 0 14.698-11.188 26.614-25 26.614-13.803 0-24.999-11.916-24.999-26.614 0-2.915.075-5.052.522-8.04l-11.22 16.03c3.569 16.876 18.184 29.513 35.697 29.513 20.189 0 36.56-16.785 36.56-37.503C523.032 16.793 506.66 0 486.472 0" style="stroke-width:8.28062"/><use xlink:href="#d" width="100%" height="100%" transform="matrix(11 0 0 -11 23622323000 -23622325000)"/><use xlink:href="#d" width="100%" height="100%" transform="matrix(11 0 0 -11 23622323000 -23622325000)"/><use xlink:href="#d" width="100%" height="100%" transform="matrix(11 0 0 -11 23622323000 -23622325000)"/><use xlink:href="#d" width="100%" height="100%" transform="matrix(11 0 0 -11 23622323000 -23622325000)"/><use xlink:href="#c" width="100%" height="100%" transform="matrix(11 0 0 -11 23622323000 -23622325000)"/><use xlink:href="#c" width="100%" height="100%" transform="matrix(11 0 0 -11 23622323000 -23622325000)"/><use xlink:href="#c" width="100%" height="100%" transform="matrix(11 0 0 -11 23622323000 -23622325000)"/><use xlink:href="#c" width="100%" height="100%" transform="matrix(11 0 0 -11 23622323000 -23622325000)"/><use xlink:href="#c" width="100%" height="100%" transform="matrix(11 0 0 -11 23622323000 -23622325000)"/><use xlink:href="#c" width="100%" height="100%" transform="matrix(11 0 0 -11 23622323000 -23622325000)"/><use xlink:href="#c" width="100%" height="100%" transform="matrix(11 0 0 -11 23622323000 -23622325000)"/><use xlink:href="#c" width="100%" height="100%" transform="matrix(11 0 0 -11 23622323000 -23622325000)"/><use xlink:href="#d" width="100%" height="100%" transform="matrix(11 0 0 -11 23622323000 -23622325000)"/><use xlink:href="#d" width="100%" height="100%" transform="matrix(11 0 0 -11 23622323000 -23622325000)"/><use xlink:href="#d" width="100%" height="100%" transform="matrix(11 0 0 -11 23622323000 -23622325000)"/><use xlink:href="#c" width="100%" height="100%" transform="matrix(11 0 0 -11 23622323000 -23622325000)"/><use xlink:href="#c" width="100%" height="100%" transform="matrix(11 0 0 -11 23622323000 -23622325000)"/><use xlink:href="#c" width="100%" height="100%" transform="matrix(11 0 0 -11 23622323000 -23622325000)"/><use xlink:href="#c" width="100%" height="100%" transform="matrix(11 0 0 -11 23622323000 -23622325000)"/><use xlink:href="#c" width="100%" height="100%" transform="matrix(11 0 0 -11 23622323000 -23622325000)"/><use xlink:href="#c" width="100%" height="100%" transform="matrix(11 0 0 -11 23622323000 -23622325000)"/><use xlink:href="#c" width="100%" height="100%" transform="matrix(11 0 0 -11 23622323000 -23622325000)"/><use xlink:href="#c" width="100%" height="100%" transform="matrix(11 0 0 -11 23622323000 -23622325000)"/><use xlink:href="#c" width="100%" height="100%" transform="matrix(11 0 0 -11 23622323000 -23622325000)"/><use xlink:href="#c" width="100%" height="100%" transform="matrix(11 0 0 -11 23622323000 -23622325000)"/><use xlink:href="#c" width="100%" height="100%" transform="matrix(11 0 0 -11 23622323000 -23622325000)"/><use xlink:href="#c" width="100%" height="100%" transform="matrix(11 0 0 -11 23622323000 -23622325000)"/><use xlink:href="#d" width="100%" height="100%" transform="matrix(11 0 0 -11 23622324000 -23622325000)"/><use xlink:href="#d" width="100%" height="100%" transform="matrix(11 0 0 -11 23622324000 -23622325000)"/><use xlink:href="#d" width="100%" height="100%" transform="matrix(11 0 0 -11 23622324000 -23622325000)"/><use xlink:href="#c" width="100%" height="100%" transform="matrix(11 0 0 -11 23622324000 -23622325000)"/><use xlink:href="#c" width="100%" height="100%" transform="matrix(11 0 0 -11 23622324000 -23622325000)"/><use xlink:href="#c" width="100%" height="100%" transform="matrix(11 0 0 -11 23622324000 -23622325000)"/><use xlink:href="#c" width="100%" height="100%" transform="matrix(11 0 0 -11 23622324000 -23622325000)"/><use xlink:href="#c" width="100%" height="100%" transform="matrix(11 0 0 -11 23622324000 -23622325000)"/><use xlink:href="#c" width="100%" height="100%" transform="matrix(11 0 0 -11 23622324000 -23622325000)"/><use xlink:href="#c" width="100%" height="100%" transform="matrix(11 0 0 -11 23622324000 -23622325000)"/><use xlink:href="#c" width="100%" height="100%" transform="matrix(11 0 0 -11 23622324000 -23622325000)"/><use xlink:href="#c" width="100%" height="100%" transform="matrix(11 0 0 -11 23622324000 -23622325000)"/><use xlink:href="#c" width="100%" height="100%" fill="#3e3a39" transform="matrix(9 0 0 -9 19327354000 -19327354000)"/><use xlink:href="#c" width="100%" height="100%" fill="#3e3a39" transform="matrix(9 0 0 -9 19327354000 -19327354000)"/><use xlink:href="#c" width="100%" height="100%" fill="#3e3a39" transform="matrix(9 0 0 -9 19327354000 -19327354000)"/><symbol id="e" transform="translate(-475.053 -533.24)"><path d="M-2147483500-2147483500Z"/></symbol><use xlink:href="#e" width="100%" height="100%" fill="#654b3a" transform="matrix(9 0 0 -9 19327354000 -19327354000)"/><use xlink:href="#e" width="100%" height="100%" fill="#654b3a" transform="matrix(9 0 0 -9 19327354000 -19327354000)"/><use xlink:href="#e" width="100%" height="100%" fill="#654b3a" transform="matrix(9 0 0 -9 19327354000 -19327354000)"/><use xlink:href="#e" width="100%" height="100%" fill="#654b3a" transform="matrix(9 0 0 -9 19327354000 -19327354000)"/><use xlink:href="#e" width="100%" height="100%" fill="#654b3a" transform="matrix(9 0 0 -9 19327354000 -19327354000)"/><use xlink:href="#e" width="100%" height="100%" fill="#654b3a" transform="matrix(9 0 0 -9 19327354000 -19327354000)"/><use xlink:href="#e" width="100%" height="100%" fill="#654b3a" transform="matrix(9 0 0 -9 19327354000 -19327354000)"/><use xlink:href="#e" width="100%" height="100%" fill="#654b3a" transform="matrix(9 0 0 -9 19327354000 -19327354000)"/><use xlink:href="#e" width="100%" height="100%" fill="#654b3a" transform="matrix(9 0 0 -9 19327354000 -19327354000)"/><use xlink:href="#e" width="100%" height="100%" fill="#654b3a" transform="matrix(9 0 0 -9 19327354000 -19327354000)"/><use xlink:href="#e" width="100%" height="100%" fill="#654b3a" transform="matrix(9 0 0 -9 19327354000 -19327354000)"/><use xlink:href="#e" width="100%" height="100%" fill="#654b3a" transform="matrix(9 0 0 -9 19327354000 -19327354000)"/><use xlink:href="#c" width="100%" height="100%" fill="#3e3a39" transform="matrix(9 0 0 -9 19327354000 -19327354000)"/><use xlink:href="#c" width="100%" height="100%" fill="#3e3a39" transform="matrix(9 0 0 -9 19327354000 -19327354000)"/><use xlink:href="#c" width="100%" height="100%" fill="#3e3a39" transform="matrix(9 0 0 -9 19327354000 -19327354000)"/><use xlink:href="#c" width="100%" height="100%" fill="#3e3a39" transform="matrix(9 0 0 -9 19327354000 -19327354000)"/><use xlink:href="#c" width="100%" height="100%" fill="#3e3a39" transform="matrix(9 0 0 -9 19327354000 -19327354000)"/><use xlink:href="#c" width="100%" height="100%" fill="#3e3a39" transform="matrix(9 0 0 -9 19327354000 -19327354000)"/><use xlink:href="#c" width="100%" height="100%" fill="#3e3a39" transform="matrix(9 0 0 -9 19327354000 -19327354000)"/><use xlink:href="#e" width="100%" height="100%" fill="#3e3a39" transform="matrix(8.91 0 0 -9 19134081000 -19327354000)"/><use xlink:href="#e" width="100%" height="100%" fill="#3e3a39" transform="matrix(8.91 0 0 -9 19134081000 -19327354000)"/><use xlink:href="#e" width="100%" height="100%" fill="#8d7553" transform="matrix(9 0 0 -9 19327354000 -19327354000)"/><use xlink:href="#e" width="100%" height="100%" fill="#8d7553" transform="matrix(9 0 0 -9 19327354000 -19327354000)"/><use xlink:href="#e" width="100%" height="100%" fill="#8d7553" transform="matrix(9 0 0 -9 19327354000 -19327354000)"/><use xlink:href="#e" width="100%" height="100%" fill="#3e3a39" transform="matrix(8.82 0 0 -9 18940808000 -19327354000)"/><use xlink:href="#e" width="100%" height="100%" fill="#3e3a39" transform="matrix(8.82 0 0 -9 18940808000 -19327354000)"/><use xlink:href="#e" width="100%" height="100%" fill="#3e3a39" transform="matrix(8.82 0 0 -9 18940808000 -19327354000)"/><use xlink:href="#e" width="100%" height="100%" fill="#8d7553" transform="matrix(9 0 0 -9 19327354000 -19327354000)"/><use xlink:href="#e" width="100%" height="100%" fill="#8d7553" transform="matrix(9 0 0 -9 19327354000 -19327354000)"/><use xlink:href="#e" width="100%" height="100%" fill="#8d7553" transform="matrix(9 0 0 -9 19327354000 -19327354000)"/><use xlink:href="#e" width="100%" height="100%" fill="#3e3a39" transform="matrix(8.91 0 0 -9 19134081000 -19327354000)"/><use xlink:href="#e" width="100%" height="100%" fill="#3e3a39" transform="matrix(8.91 0 0 -9 19134081000 -19327354000)"/><use xlink:href="#e" width="100%" height="100%" fill="#3e3a39" transform="matrix(8.91 0 0 -9 19134081000 -19327354000)"/><use xlink:href="#e" width="100%" height="100%" fill="#8d7553" transform="matrix(9 0 0 -9 19327354000 -19327354000)"/><use xlink:href="#e" width="100%" height="100%" fill="#8d7553" transform="matrix(9 0 0 -9 19327354000 -19327354000)"/><use xlink:href="#e" width="100%" height="100%" fill="#8d7553" transform="matrix(9 0 0 -9 19327354000 -19327354000)"/><use xlink:href="#e" width="100%" height="100%" fill="#3e3a39" transform="matrix(9 0 0 -9 19327354000 -19327354000)"/><use xlink:href="#e" width="100%" height="100%" fill="#3e3a39" transform="matrix(9 0 0 -9 19327354000 -19327354000)"/><use xlink:href="#e" width="100%" height="100%" fill="#3e3a39" transform="matrix(9 0 0 -9 19327354000 -19327354000)"/><use xlink:href="#e" width="100%" height="100%" fill="#3e3a39" transform="matrix(9 0 0 -9 19327354000 -19327354000)"/><use xlink:href="#e" width="100%" height="100%" fill="#8d7553" transform="matrix(9 0 0 -9 19327354000 -19327354000)"/><use xlink:href="#e" width="100%" height="100%" fill="#8d7553" transform="matrix(9 0 0 -9 19327354000 -19327354000)"/><use xlink:href="#e" width="100%" height="100%" fill="#8d7553" transform="matrix(9 0 0 -9 19327354000 -19327354000)"/><use xlink:href="#e" width="100%" height="100%" fill="#3e3a39" transform="matrix(9 0 0 -9 19327354000 -19327354000)"/><use xlink:href="#e" width="100%" height="100%" fill="#3e3a39" transform="matrix(9 0 0 -9 19327354000 -19327354000)"/><use xlink:href="#e" width="100%" height="100%" fill="#3e3a39" transform="matrix(9 0 0 -9 19327354000 -19327354000)"/><use xlink:href="#e" width="100%" height="100%" fill="#8d7553" transform="matrix(9 0 0 -9 19327354000 -19327354000)"/><use xlink:href="#e" width="100%" height="100%" fill="#8d7553" transform="matrix(9 0 0 -9 19327354000 -19327354000)"/><use xlink:href="#e" width="100%" height="100%" fill="#8d7553" transform="matrix(9 0 0 -9 19327354000 -19327354000)"/><use xlink:href="#e" width="100%" height="100%" fill="#3e3a39" transform="matrix(9 0 0 -9 19327354000 -19327354000)"/><use xlink:href="#e" width="100%" height="100%" fill="#3e3a39" transform="matrix(9 0 0 -9 19327354000 -19327354000)"/><use xlink:href="#e" width="100%" height="100%" fill="#3e3a39" transform="matrix(9 0 0 -9 19327354000 -19327354000)"/><use xlink:href="#e" width="100%" height="100%" fill="#3e3a39" transform="matrix(9 0 0 -9 19327354000 -19327354000)"/><use xlink:href="#e" width="100%" height="100%" fill="#3e3a39" transform="matrix(9 0 0 -9 19327354000 -19327354000)"/><use xlink:href="#e" width="100%" height="100%" fill="#3e3a39" transform="matrix(9 0 0 -9 19327354000 -19327354000)"/><use xlink:href="#e" width="100%" height="100%" fill="#3e3a39" transform="matrix(9 0 0 -9 19327354000 -19327354000)"/><use xlink:href="#e" width="100%" height="100%" fill="#3e3a39" transform="matrix(9 0 0 -9 19327354000 -19327354000)"/><use xlink:href="#e" width="100%" height="100%" fill="#3e3a39" transform="matrix(9 0 0 -9 19327354000 -19327354000)"/></svg>