<svg xmlns="http://www.w3.org/2000/svg" xml:space="preserve" width="1290.895" height="200" viewBox="0 0 1290.8951 200"><defs><linearGradient id="a" x1="0" x2="1" y1="0" y2="0" gradientTransform="scale(76.21397 -76.21397) rotate(66.961 11.177 -2.856)" gradientUnits="userSpaceOnUse" spreadMethod="pad"><stop offset="0" style="stop-opacity:1;stop-color:#fff798"/><stop offset="1" style="stop-opacity:1;stop-color:#f3983a"/></linearGradient><linearGradient id="b" x1="0" x2="1" y1="0" y2="0" gradientTransform="scale(85.53192 -85.53192) rotate(78.584 8.804 -2.998)" gradientUnits="userSpaceOnUse" spreadMethod="pad"><stop offset="0" style="stop-opacity:1;stop-color:#f3981e"/><stop offset="1" style="stop-opacity:1;stop-color:#dc5004"/></linearGradient><linearGradient id="c" x1="0" x2="1" y1="0" y2="0" gradientTransform="scale(85.81696 -85.81696) rotate(64.398 11.164 -1.852)" gradientUnits="userSpaceOnUse" spreadMethod="pad"><stop offset="0" style="stop-opacity:1;stop-color:#e60013"/><stop offset="1" style="stop-opacity:1;stop-color:#a40000"/></linearGradient></defs><path d="M283.209 937.201c-.328-.21-.63-.4-.93-.577a4.724 4.724 0 0 1-2.327-3.606c-.132-20.655 5.059-41.604 16.179-60.747 11.189-19.261 26.943-34.191 45.077-44.3a4.718 4.718 0 0 1 4.595.082c.07.04.13.054.196.09.144.07.282.142.421.227 14.92 8.673 27.252 20.084 36.753 33.215-14.926-7.683-31.71-12.332-49.587-13.087a5 5 0 0 0-.474-.003c-.074 0-.135.012-.214.012a4.728 4.728 0 0 0-4.113 2.064c-11.34 17.388-18.332 37.94-19.269 60.194a119.1 119.1 0 0 0 4.836 39.084A119.562 119.562 0 0 1 283.21 937.2" style="fill:url(#a);stroke:none;stroke-width:1.51557" transform="matrix(1.33333 0 0 -1.33333 -373.266 1303.219)"/><path d="M314.352 949.849a119.02 119.02 0 0 1-4.837-39.084c.938-22.254 7.929-42.806 19.27-60.194a4.724 4.724 0 0 1 4.109-2.064c.08 0 .144-.012.213-.012a4.99 4.99 0 0 1 .475.003c17.88.755 34.66 5.404 49.59 13.087 15.093 20.857 23.03 46.069 22.737 71.649a4.623 4.623 0 0 1-.613 2.127 4.65 4.65 0 0 1-1.539 1.592 120.236 120.236 0 0 1-60.623 16.427 118.76 118.76 0 0 1-28.782-3.531" style="fill:url(#b);stroke:none;stroke-width:1.51557" transform="matrix(1.33333 0 0 -1.33333 -373.266 1303.219)"/><path d="M328.299 974.25c-.38-.041-.743-.066-1.087-.078-1.573-.064-2.925-.902-3.738-2.116a118.883 118.883 0 0 1-9.122-22.207c30.578 7.63 62.733 2.704 89.405-12.896a4.65 4.65 0 0 0 1.539-1.592c.39-.67.579-1.392.613-2.127.293-25.58-7.644-50.792-22.738-71.65 17.498 9.003 32.42 22.19 43.543 38.17l-2.984-16.948h19.699l3.408 19.04 7.625 6.45 10.693-25.49h20.15l-17.204 36.211 26.656 23.731h-23.561l-20.7-19.37 3.49 19.37h-19.699l-3.339-18.95c-21.747 30.694-57.516 50.558-97.553 50.559-1.692 0-3.388-.035-5.096-.108" style="fill:url(#c);stroke:none;stroke-width:1.51557" transform="matrix(1.33333 0 0 -1.33333 -373.266 1303.219)"/><path d="m363.164 927.436-7.514-42.64h13.96l7.508 42.64zm-23.417-14.256c-.362-2.76-2.666-4.133-6.923-4.133h-5.914l1.537 8.451h6.68c.87 0 1.718-.195 2.544-.59.83-.392 1.41-.92 1.745-1.568.337-.647.445-1.367.33-2.16m9.904 11.917c-2.39 1.56-6.655 2.339-12.805 2.339h-20.641l-7.511-42.64h13.958l2.663 14.9h2.069c3.237 0 5.46-.227 6.683-.68 1.22-.45 1.834-1.643 1.834-3.575l-.471-4.788c-.241-1.775-.355-3.215-.355-4.32l.053-1.538h14.077l.238 1.242c-.668 0-1.067.431-1.187 1.304l.48 2.895.586 3.313c.24 1.776.356 3.175.356 4.203 0 2.243-.414 3.759-1.234 4.55-.715.829-2.194 1.696-4.442 2.602 3.039.749 5.335 2.355 6.887 4.82 1.56 2.464 2.338 5.311 2.338 8.544 0 2.996-1.195 5.276-3.576 6.83m62.402 2.338h-15.12l-22.723-42.64h14.277l12.911 24.223 4.345-24.224h8.651a120.964 120.964 0 0 1 4.44 4.852z" style="fill:#fff;fill-opacity:1;fill-rule:nonzero;stroke:none;stroke-width:1.51557" transform="matrix(1.33333 0 0 -1.33333 -373.266 1303.219)"/><path d="M532.395 847.933c0 2.534-1.786 3.655-3.694 3.655h-5.564v-7.341h5.364c1.876 0 3.894 1.194 3.894 3.686m.606-15.436-5.655 9.032h-4.209v-9.004h-2.628v21.787h8.022c3.804 0 6.719-2.498 6.719-6.38 0-2.973-2.048-5.287-4.73-6.147l5.738-9.288zM539.786 832.526v21.754h13.73v-2.691H542.41v-6.47h10.616v-2.693h-10.616v-7.275h11.306v-2.625zM574.894 839.476c-.695-3.527-3.26-7.56-8.453-7.56-5.654 0-9.058 4.515-9.058 11.502 0 6.855 3.404 11.342 9.058 11.342 5.25 0 7.816-4.13 8.424-6.926h-2.915c-.635 2.018-2.076 4.235-5.509 4.235-3.863 0-6.203-3.363-6.203-8.651 0-5.446 2.34-8.875 6.203-8.875 3.316 0 4.962 2.461 5.538 4.933zM594.254 843.388c0 5.189-2.366 8.68-6.2 8.68-3.894 0-6.234-3.491-6.234-8.68 0-5.355 2.34-8.845 6.233-8.845 3.835 0 6.2 3.49 6.2 8.845m2.915 0c0-6.957-3.55-11.502-9.115-11.502-5.597 0-9.087 4.545-9.087 11.502 0 6.853 3.49 11.372 9.087 11.372 5.566 0 9.115-4.519 9.115-11.372M613.874 847.933c0 2.534-1.787 3.655-3.689 3.655h-5.57v-7.341h5.367c1.874 0 3.892 1.194 3.892 3.686m.606-15.436-5.653 9.032h-4.211v-9.004h-2.625v21.787h8.019c3.807 0 6.72-2.498 6.72-6.38 0-2.973-2.048-5.287-4.729-6.147l5.74-9.288zM634.043 843.418c0 4.485-2.081 8.17-6.666 8.17h-3.49v-16.437h3.49c4.585 0 6.666 3.686 6.666 8.267m2.936 0c0-6.341-3.454-10.96-9.08-10.96h-6.638v21.854h6.638c5.626 0 9.08-4.644 9.08-10.894M641.694 854.281h2.597v-21.754h-2.597zM662.087 832.526l-9.606 17.141v-17.141h-2.623v21.785h3.113l9.637-17.173.032 17.142h2.62v-21.754zM685.027 832.526v2.754c-1.067-1.669-3.204-3.395-5.971-3.395-5.655 0-9.057 4.575-9.057 11.533 0 6.854 3.402 11.343 9.057 11.343 5.253 0 7.845-4.13 8.45-6.957h-2.941c-.633 2.048-2.078 4.265-5.51 4.265-3.979 0-6.2-3.492-6.2-8.65 0-5.222 2.221-8.877 6.2-8.877 3.575 0 5.827 3.046 5.912 6.5h-5.538v2.596h8.25v-11.112zM711.717 854.281h2.596v-21.754h-2.596zM732.114 832.526l-9.61 17.141v-17.141h-2.621v21.785h3.116l9.634-17.173.03 17.142h2.624v-21.754zM753.64 843.418c0 4.485-2.081 8.17-6.663 8.17h-3.49v-16.437h3.49c4.582 0 6.663 3.686 6.663 8.267m2.938 0c0-6.341-3.46-10.96-9.082-10.96h-6.636v21.854h6.636c5.622 0 9.082-4.644 9.082-10.894M776.317 839.19c0-3.85-2.717-7.304-7.56-7.304-4.96 0-7.612 3.454-7.612 7.303v15.091h2.676v-14.772c0-1.957 1.13-4.967 4.937-4.967 3.722 0 4.902 3.01 4.902 4.967v14.772h2.657zM795.909 837.905c-.432-3.393-2.886-6.244-7.646-6.244-5.277 0-7.755 4.227-7.846 8.139h2.826c.147-3.557 2.193-5.453 5.08-5.453 2.913 0 4.241 1.541 4.643 3.625.316 1.663-.544 2.62-2.02 3.43-1.757.926-3.803.603-5.857 1.535-2.649 1.212-4.033 2.693-3.978 5.733.057 2.985 2.452 6.311 7.037 6.311 5.513 0 7.182-4.612 7.182-7.11h-2.796c0 2.432-1.355 4.484-4.386 4.484-2.77 0-4.067-1.889-4.067-3.685 0-1.918 1.214-2.656 2.398-3.04 1.382-.61 3.924-.67 6.085-1.76 2.28-1.157 3.662-3.4 3.345-5.965M807.624 851.589v-19.063h-2.683v19.063h-6.46v2.691h15.661v-2.691zM829.928 847.933c0 2.534-1.793 3.655-3.693 3.655h-5.567v-7.341h5.367c1.874 0 3.893 1.194 3.893 3.686m.605-15.436-5.658 9.032h-4.207v-9.004h-2.627v21.787h8.02c3.806 0 6.72-2.498 6.72-6.38 0-2.973-2.048-5.287-4.73-6.147l5.739-9.288zM845.39 841.493v-8.967h-2.681v8.937l-7.33 12.849h3.118l5.54-9.774 5.537 9.774h3.145zM882.612 851.039l-3.833-10.447h7.638zm6.808-18.513-2.019 5.318h-9.578l-2.016-5.318h-2.742l7.933 21.755h3.205l7.958-21.755zM909.587 837.905c-.43-3.393-2.88-6.244-7.641-6.244-5.28 0-7.76 4.227-7.852 8.139h2.828c.145-3.557 2.196-5.453 5.081-5.453 2.913 0 4.24 1.541 4.642 3.625.316 1.663-.545 2.62-2.018 3.43-1.758.926-3.806.603-5.86 1.535-2.652 1.212-4.03 2.693-3.976 5.733.054 2.985 2.449 6.311 7.04 6.311 5.509 0 7.18-4.612 7.18-7.11h-2.799c0 2.432-1.353 4.484-4.381 4.484-2.771 0-4.067-1.889-4.067-3.685 0-1.918 1.211-2.656 2.392-3.04 1.385-.61 3.925-.67 6.088-1.76 2.276-1.157 3.661-3.4 3.343-5.965M928.024 837.905c-.427-3.393-2.882-6.244-7.641-6.244-5.283 0-7.761 4.227-7.846 8.139h2.826c.144-3.557 2.192-5.453 5.076-5.453 2.917 0 4.242 1.541 4.644 3.625.318 1.663-.549 2.62-2.02 3.43-1.754.926-3.805.603-5.855 1.535-2.652 1.212-4.035 2.693-3.98 5.733.058 2.985 2.454 6.311 7.04 6.311 5.512 0 7.18-4.612 7.18-7.11h-2.796c0 2.432-1.36 4.484-4.384 4.484-2.774 0-4.07-1.889-4.07-3.685 0-1.918 1.216-2.656 2.392-3.04 1.391-.61 3.925-.67 6.091-1.76 2.273-1.157 3.665-3.4 3.343-5.965M946.72 843.388c0 5.189-2.366 8.68-6.204 8.68-3.89 0-6.227-3.491-6.227-8.68 0-5.355 2.337-8.845 6.227-8.845 3.838 0 6.203 3.49 6.203 8.845m2.916 0c0-6.957-3.546-11.502-9.119-11.502-5.59 0-9.081 4.545-9.081 11.502 0 6.853 3.49 11.372 9.081 11.372 5.573 0 9.12-4.519 9.12-11.372M971.13 839.476c-.695-3.527-3.26-7.56-8.451-7.56-5.652 0-9.059 4.515-9.059 11.502 0 6.855 3.407 11.342 9.059 11.342 5.25 0 7.817-4.13 8.422-6.926h-2.91c-.637 2.018-2.08 4.235-5.512 4.235-3.862 0-6.2-3.363-6.2-8.651 0-5.446 2.338-8.875 6.2-8.875 3.314 0 4.96 2.461 5.537 4.933zM976.04 854.281h2.595v-21.754h-2.595zM991.849 851.039l-3.831-10.447h7.643zm6.808-18.513-2.016 5.318h-9.581l-2.016-5.318h-2.742l7.933 21.755h3.204l7.962-21.755zM1012.106 851.589v-19.063h-2.681v19.063h-6.464v2.691h15.663v-2.691zM1022.523 854.281h2.594v-21.754h-2.594zM1045.137 843.388c0 5.189-2.366 8.68-6.2 8.68-3.897 0-6.234-3.491-6.234-8.68 0-5.355 2.337-8.845 6.234-8.845 3.834 0 6.2 3.49 6.2 8.845m2.916 0c0-6.957-3.55-11.502-9.116-11.502-5.597 0-9.087 4.545-9.087 11.502 0 6.853 3.49 11.372 9.087 11.372 5.567 0 9.116-4.519 9.116-11.372M1065.105 832.526l-9.604 17.141v-17.141h-2.627v21.785h3.115l9.639-17.173.026 17.142h2.626v-21.754zM1107.059 843.388c0 5.189-2.366 8.68-6.202 8.68-3.895 0-6.235-3.491-6.235-8.68 0-5.355 2.34-8.845 6.235-8.845 3.836 0 6.202 3.49 6.202 8.845m2.912 0c0-6.957-3.546-11.502-9.114-11.502-5.596 0-9.09 4.545-9.09 11.502 0 6.853 3.494 11.372 9.09 11.372 5.568 0 9.114-4.519 9.114-11.372M1117.418 851.589v-6.764h9.667v-2.783h-9.667v-9.516h-2.626v21.754h13.646v-2.691zM1164.59 832.526l-8.018 10.027a138.089 138.089 0 0 0-2.799-2.784v-7.243h-2.626v21.754h2.626v-10.666c2.623 2.491 6.46 6.815 9.26 10.666h3.263c-2.655-3.685-5.457-7.176-7.82-9.711l9.286-12.013zM1185.48 843.388c0 5.189-2.363 8.68-6.199 8.68-3.892 0-6.235-3.491-6.235-8.68 0-5.355 2.343-8.845 6.235-8.845 3.836 0 6.199 3.49 6.199 8.845m2.91 0c0-6.957-3.54-11.502-9.109-11.502-5.601 0-9.089 4.545-9.089 11.502 0 6.853 3.488 11.372 9.09 11.372 5.567 0 9.108-4.519 9.108-11.372M1205.1 847.933c0 2.534-1.787 3.655-3.693 3.655h-5.565v-7.341h5.365c1.874 0 3.893 1.194 3.893 3.686m.608-15.436-5.658 9.032h-4.208v-9.004h-2.622v21.787h8.017c3.806 0 6.715-2.498 6.715-6.38 0-2.973-2.04-5.287-4.727-6.147l5.741-9.288zM1212.493 832.526v21.754h13.726v-2.691h-11.109v-6.47h10.62v-2.693h-10.62v-7.275h11.31v-2.625zM1238.571 851.039l-3.837-10.447h7.643zm6.808-18.513-2.022 5.318h-9.578l-2.016-5.318h-2.742l7.933 21.755h3.207l7.96-21.755z" style="fill:#887e71;fill-opacity:1;fill-rule:nonzero;stroke:none;stroke-width:1.51557" transform="matrix(1.33333 0 0 -1.33333 -373.266 1303.219)"/><path d="M1100.247 933.593a9.25 9.25 0 0 0 9.256-9.259 9.242 9.242 0 0 0-9.256-9.248c-5.098 0-9.261 4.14-9.261 9.248 0 5.11 4.163 9.259 9.261 9.259m-19.29-9.259c0-10.644 8.642-19.294 19.29-19.294 10.661 0 19.274 8.65 19.274 19.294 0 3.386-.94 6.505-2.458 9.283h3.044v9.601h-14.272v5.812H1093.5v-5.812h-15.034v-9.6h4.978c-1.524-2.779-2.487-5.898-2.487-9.284m64.999-41.64h-55.154v3.358h55.154zm12.34 3.357v9.625h-.01v8.213h-12.334v-8.213h-55.155v8.213h-12.335v-30.814h79.831v9.619h-.01v3.357zm-16.59 23.247h12.344v35.474h-12.344v-6.361h-11.674v-9.62h11.674v-4.78h-11.674v-9.613h11.674zM1010.101 934.751c5.11 0 9.258-4.143 9.258-9.272 0-5.088-4.147-9.254-9.258-9.254-5.113 0-9.263 4.166-9.263 9.254 0 5.129 4.15 9.272 9.263 9.272m0-28.549c10.655 0 19.28 8.653 19.28 19.277 0 10.66-8.625 19.293-19.28 19.293-10.654 0-19.282-8.633-19.282-19.293 0-10.624 8.628-19.277 19.282-19.277m43.175 3.097h12.354v35.473h-12.354v-11.576h-11.693v-9.624h11.693zm4.32-26.605h-55.136v3.359h55.136zm12.342 3.357v17.839h-12.342v-8.213h-55.136v8.213h-12.355v-29.681h.02v-1.134h79.813v9.62zM541.533 933.593c5.109 0 9.252-4.15 9.252-9.259 0-5.107-4.143-9.248-9.252-9.248a9.24 9.24 0 0 0-9.25 9.248c0 5.11 4.128 9.259 9.25 9.259m-19.27-9.259c0-10.644 8.614-19.294 19.27-19.294 10.645 0 19.272 8.65 19.272 19.294 0 3.386-.931 6.505-2.474 9.283h3.063v9.601h-14.28v5.812H534.79v-5.812h-15.03v-9.6h4.974c-1.532-2.779-2.472-5.898-2.472-9.284m73.052 8.862v11.576h-12.338v-35.474h12.338v14.274h11.715v9.624zm-63.239-29.307h-12.333v-17.838h79.426v9.625h-67.093zM697.293 912.4v9.618h-12.475v20.226h-70.825v-9.614h58.505v-10.612h-58.505V912.4h37.801v-7.36h-37.801v-9.593h70.96v-16.214h12.34v25.808h-33.156v7.36zM708.457 913.8h83.291v9.608h-83.291zm12.337-13.873h58.613v-4.264h-58.613zm-12.337 0v-13.894h83.291v23.527h-83.291zm41.643 67.075c8.598 0 15.547-6.975 15.547-15.565 0-8.572-6.949-15.524-15.547-15.524-8.578 0-15.544 6.952-15.544 15.524 0 8.59 6.966 15.565 15.544 15.565m0-41.518c14.337 0 25.968 11.625 25.968 25.953 0 14.353-11.63 25.977-25.968 25.977-14.342 0-25.968-11.624-25.968-25.977 0-14.328 11.626-25.953 25.968-25.953M833.937 925.43h-20.312v3.216h20.312Zm12.334-8.122v26.184h-12.334v-5.233h-20.312v5.233H801.29v-27.681h44.982zm-29.442-13.419h-12.324v-17.838h79.43v9.625H816.83zm59.527 32.215v8.67h-12.338v-29.31h12.338v11.02h13.107v9.62zM914.374 928.166l13.24-13.703 8.922 8.53-13.607 14.08v.01l-8.567 8.853-22.076-22.943 8.902-8.554zm-3.483-24.277h-12.358v-17.838h79.45v9.625h-67.092zm59.495 32.214v8.669h-12.335v-29.308h12.335v11.02h13.134v9.619zM1176.83 924.333c0 5.111 4.147 9.26 9.265 9.26 5.105 0 9.253-4.149 9.253-9.26 0-5.105-4.148-9.248-9.253-9.248-5.118 0-9.266 4.143-9.266 9.248m68.363-28.656v49.095h-12.334v-49.095h-40.602v10.49c7.592 2.57 13.131 9.704 13.131 18.166 0 3.388-.96 6.507-2.496 9.285h4.016v9.6h-14.65v5.813h-12.336v-5.813h-14.657v-9.6h4.031c-1.534-2.778-2.487-5.897-2.487-9.285 0-8.462 5.503-15.596 13.113-18.167v-10.489h-14.657v-9.663h67.594v-2.418h12.334v2.418z" style="fill:#231916;fill-opacity:1;fill-rule:nonzero;stroke:none;stroke-width:1.51557" transform="matrix(1.33333 0 0 -1.33333 -373.266 1303.219)"/></svg>